<svg width="41" height="40" viewBox="0 0 41 40" fill="none" xmlns="http://www.w3.org/2000/svg">
<path id="Vector" d="M29.161 20.0423C35.5925 16.3053 40.002 8.76913 40.002 0.0936136H35.002C35.002 8.72208 29.586 15.9033 22.501 17.292V0H17.501V17.2925C10.416 15.9038 5 8.72258 5 0.0941145H0C0 8.76963 4.409 16.3058 10.8415 20.0428C4.409 23.7793 0 31.3155 0 39.991H5C5 31.3625 10.416 24.1813 17.501 22.7926V40H22.501V22.7921C29.586 24.1808 35.002 31.362 35.002 39.9905H40.002C40.002 31.3155 35.593 23.7793 29.161 20.0423Z" fill="#222222"/>
</svg>
