<svg width="36" height="40" viewBox="0 0 36 40" fill="none" xmlns="http://www.w3.org/2000/svg">
<g id="Group">
<path id="Vector" d="M26.4006 17.6562C26.4006 13.1328 22.6326 9.45312 18.0006 9.45312C13.3686 9.45312 9.60059 13.1328 9.60059 17.6562C9.60059 22.1797 13.3686 25.8594 18.0006 25.8594C22.6326 25.8594 26.4006 22.1797 26.4006 17.6562ZM12.3607 18.4765L14.0406 16.8359L16.8007 19.5077L21.9607 14.4921L23.6407 16.1327L16.8006 22.8359L12.3607 18.4765Z" fill="#222222"/>
<path id="Vector_2" d="M18 40L18.336 39.9062C19.056 39.7188 36 34.625 36 5.9375V4.76562H34.8C26.8079 4.76562 18.6721 0.351484 18.576 0.304688L18 0L17.424 0.304688C17.3279 0.351484 9.19208 4.76562 1.2 4.76562H0V5.9375C0 34.625 16.944 39.7188 17.664 39.9062L18 40ZM7.2 17.6562C7.2 11.8437 12.0481 7.10938 18 7.10938C23.9519 7.10938 28.8 11.8437 28.8 17.6562C28.8 23.4687 23.9519 28.2031 18 28.2031C12.0481 28.2031 7.2 23.4687 7.2 17.6562Z" fill="#222222"/>
</g>
</svg>
