<svg width="31" height="40" viewBox="0 0 31 40" fill="none" xmlns="http://www.w3.org/2000/svg">
<g id="Group 540">
<path id="Vector" d="M15.4984 21.9368C19.0129 21.9368 21.862 19.062 21.862 15.5158C21.862 11.9695 19.0129 9.09473 15.4984 9.09473C11.9838 9.09473 9.13477 11.9695 9.13477 15.5158C9.13477 19.062 11.9838 21.9368 15.4984 21.9368Z" fill="#222222"/>
<path id="Vector_2" d="M30.4676 14.9469C30.6766 14.6735 30.8291 14.3606 30.916 14.0266C31.003 13.6927 31.0227 13.3445 30.9739 13.0027C30.9251 12.661 30.8088 12.3326 30.6319 12.037C30.4551 11.7414 30.2213 11.4846 29.9443 11.2818L28.8605 10.4881C28.5031 10.2266 28.2189 9.87625 28.0355 9.47108C27.852 9.0659 27.7757 8.61972 27.8138 8.17594L27.9284 6.82923C27.9597 6.48416 27.9218 6.13626 27.817 5.80628C27.7122 5.47629 27.5426 5.17098 27.3184 4.90855C27.0941 4.64612 26.8198 4.43194 26.5118 4.27878C26.2037 4.12562 25.8682 4.03662 25.5254 4.01709L24.1876 3.9421C23.747 3.91678 23.3204 3.77687 22.9493 3.53596C22.5781 3.29505 22.275 2.96134 22.0695 2.56728L21.4502 1.37055C21.2896 1.06535 21.0699 0.795789 20.8041 0.577872C20.5383 0.359954 20.2318 0.198114 19.9029 0.101949C19.5739 0.005784 19.2292 -0.0227472 18.8891 0.0180475C18.5491 0.0588422 18.2206 0.168132 17.9231 0.339435L16.7588 1.00498C16.3744 1.2246 15.9402 1.34003 15.4985 1.34003C15.0567 1.34003 14.6225 1.2246 14.2381 1.00498L13.0738 0.339435C12.7757 0.169104 12.4468 0.0609127 12.1065 0.0212796C11.7663 -0.0183535 11.4216 0.0113792 11.0929 0.108714C10.7642 0.206048 10.4583 0.369002 10.1932 0.587906C9.92814 0.806811 9.70935 1.07721 9.5498 1.38305L8.93047 2.57977C8.72496 2.97384 8.42189 3.30755 8.05074 3.54846C7.67958 3.78937 7.25297 3.92928 6.81237 3.9546L5.47462 4.02959C5.13175 4.04912 4.7963 4.13812 4.48825 4.29128C4.1802 4.44444 3.90587 4.65862 3.68162 4.92105C3.45737 5.18348 3.28779 5.48879 3.18299 5.81878C3.07819 6.14876 3.04032 6.49666 3.07163 6.84173L3.1862 8.18843C3.22432 8.63221 3.14796 9.07839 2.96455 9.48357C2.78113 9.88875 2.49692 10.2391 2.13954 10.5006L1.05571 11.2943C0.778738 11.4971 0.544902 11.7539 0.368054 12.0495C0.191205 12.3451 0.0749396 12.6735 0.026141 13.0152C-0.0226575 13.357 -0.00299673 13.7052 0.0839594 14.0391C0.170916 14.3731 0.323399 14.686 0.53238 14.9594L1.34989 16.0281C1.61973 16.3804 1.79463 16.7973 1.85757 17.238C1.92051 17.6788 1.86937 18.1285 1.7091 18.5434L1.22293 19.7932C1.09865 20.1149 1.03959 20.4584 1.04924 20.8035C1.05889 21.1486 1.13706 21.4882 1.27912 21.8023C1.42117 22.1164 1.62424 22.3985 1.87628 22.632C2.12833 22.8654 2.42423 23.0455 2.74648 23.1615L4.00681 23.6146C4.42293 23.7639 4.79365 24.0193 5.08289 24.3561C5.37213 24.6928 5.57003 25.0994 5.65732 25.5362L5.89886 26.7236L2.68145 37.2754L7.78472 35.6631L10.9619 40L13.8634 30.4293C14.2977 30.7931 14.8391 31.0016 15.4031 31.0225C15.9671 31.0435 16.5222 30.8755 16.9817 30.545L20.035 40L23.2122 35.6631L28.3155 37.2754L25.0206 27.0767C25.0423 27.0048 25.0609 26.936 25.0764 26.8611L25.3396 25.5362C25.4269 25.0994 25.6248 24.6928 25.914 24.3561C26.2033 24.0193 26.574 23.7639 26.9901 23.6146L28.2504 23.1615C28.5727 23.0455 28.8686 22.8654 29.1206 22.632C29.3727 22.3985 29.5757 22.1164 29.7178 21.8023C29.8598 21.4882 29.938 21.1486 29.9477 20.8035C29.9573 20.4584 29.8983 20.1149 29.774 19.7932L29.2878 18.5434C29.1275 18.1285 29.0764 17.6788 29.1393 17.238C29.2023 16.7973 29.3772 16.3804 29.647 16.0281L30.4676 14.9469ZM6.65754 15.5156C6.65754 13.7513 7.17605 12.0265 8.1475 10.5595C9.11895 9.09252 10.4997 7.94913 12.1152 7.27394C13.7306 6.59875 15.5083 6.42209 17.2232 6.7663C18.9382 7.11051 20.5135 7.96012 21.7499 9.20771C22.9863 10.4553 23.8284 12.0448 24.1695 13.7753C24.5106 15.5057 24.3355 17.2994 23.6664 18.9294C22.9972 20.5595 21.8641 21.9527 20.4102 22.9329C18.9563 23.9132 17.247 24.4364 15.4985 24.4364C13.1545 24.4339 10.9072 23.4932 9.2497 21.8208C7.59224 20.1484 6.66 17.8808 6.65754 15.5156Z" fill="#222222"/>
</g>
</svg>
