<svg width="22" height="22" viewBox="0 0 22 22" fill="none" xmlns="http://www.w3.org/2000/svg">
<path id="Vector" d="M11 0C8.8244 0 6.69767 0.645136 4.88873 1.85383C3.07979 3.06253 1.66989 4.78049 0.83733 6.79048C0.00476613 8.80046 -0.21307 11.0122 0.211367 13.146C0.635804 15.2798 1.68346 17.2398 3.22184 18.7782C4.76021 20.3165 6.72022 21.3642 8.85401 21.7886C10.9878 22.2131 13.1995 21.9952 15.2095 21.1627C17.2195 20.3301 18.9375 18.9202 20.1462 17.1113C21.3549 15.3023 22 13.1756 22 11C22 8.08261 20.8411 5.28473 18.7782 3.22183C16.7153 1.15893 13.9174 0 11 0ZM16.2938 13.75C16.2938 14.4299 16.1715 14.5139 15.5299 14.5139H6.50069C5.84375 14.5139 5.73681 14.384 5.73681 13.75V8.98332C5.73681 8.98332 10.5799 12.3521 11.0382 12.5201C11.5118 12.3444 16.3243 8.98332 16.3243 8.98332L16.2938 13.75ZM11.0076 11.634C10.4958 11.4507 5.71389 8.15832 5.71389 8.15832V8.08194C5.71389 7.60069 5.84375 7.39443 6.47778 7.39443H15.4764C16.1257 7.39443 16.2403 7.57013 16.2403 8.05138C16.2403 8.05138 11.55 11.4583 11.0076 11.6798V11.634Z" fill="white"/>
</svg>
