<svg width="22" height="22" viewBox="0 0 22 22" fill="none" xmlns="http://www.w3.org/2000/svg">
<path id="Vector" d="M11 4.72471e-06C8.82441 4.72471e-06 6.69766 0.645145 4.88872 1.85384C3.07978 3.06254 1.66989 4.78049 0.837327 6.79047C0.00476324 8.80046 -0.213069 11.0122 0.211368 13.146C0.635805 15.2798 1.68344 17.2398 3.22182 18.7782C4.7602 20.3166 6.72022 21.3642 8.854 21.7886C10.9878 22.2131 13.1995 21.9952 15.2095 21.1627C17.2195 20.3301 18.9375 18.9202 20.1462 17.1113C21.3549 15.3023 22 13.1756 22 11C22.0013 9.55507 21.7177 8.12408 21.1654 6.78889C20.6131 5.4537 19.8029 4.24055 18.7811 3.21884C17.7594 2.19713 16.5463 1.38692 15.2111 0.834591C13.8759 0.282264 12.4449 -0.00133502 11 4.72471e-06ZM13.4954 15.7259C13.1009 15.7779 12.6998 15.7378 12.3234 15.6088C11.947 15.4798 11.6056 15.2654 11.3259 14.9824C9.64241 13.6297 8.25557 11.9446 7.25185 10.0324C7.02704 9.69446 6.88104 9.31034 6.82463 8.90839C6.76822 8.50644 6.80283 8.09695 6.92593 7.71018C7.4151 6.99848 8.13444 6.47696 8.96297 6.23333C9.71407 6.81391 10.2311 7.64547 10.4194 8.57593C10.3685 9.15648 9.46204 9.59444 8.99352 9.88981C9.15348 10.2414 9.33723 10.5817 9.54351 10.9083C9.91343 11.462 10.3255 11.9864 10.7759 12.4769C11.0061 12.7288 11.2509 12.9669 11.5093 13.1898C11.8963 12.7824 12.4463 11.9269 13.0065 11.9778C13.7398 12.0491 15.1556 13.7093 15.125 13.9537C14.8097 14.7194 14.2319 15.3476 13.4954 15.7259Z" fill="white"/>
</svg>
