<svg width="22" height="22" viewBox="0 0 22 22" fill="none" xmlns="http://www.w3.org/2000/svg">
<path id="Google" fill-rule="evenodd" clip-rule="evenodd" d="M11 0C4.92433 0 0 4.92525 0 11C0 17.0748 4.92433 22 11 22C17.0748 22 22 17.0748 22 11C22 4.92525 17.0748 0 11 0ZM11.1283 17.4332C7.58267 17.4332 4.71167 14.5548 4.71167 11C4.71167 7.44517 7.58267 4.56683 11.1283 4.56683C12.8608 4.56683 14.3092 5.20575 15.4202 6.24342L13.6107 8.05658V8.05292C12.9369 7.40942 12.0826 7.07942 11.1283 7.07942C9.01083 7.07942 7.29025 8.87242 7.29025 10.9963C7.29025 13.1184 9.01083 14.9169 11.1283 14.9169C13.0497 14.9169 14.3568 13.8151 14.6263 12.3026H11.1283V9.79367H17.1646C17.2453 10.2245 17.2883 10.6737 17.2883 11.1448C17.2883 14.8207 14.8344 17.4332 11.1283 17.4332Z" fill="white"/>
</svg>
