<svg width="22" height="22" viewBox="0 0 22 22" fill="none" xmlns="http://www.w3.org/2000/svg">
<g id="Instagram">
<path id="Vector" d="M11.0005 8.79989C10.4944 8.79551 10.0024 8.96699 9.60871 9.28506C9.21498 9.60312 8.94391 10.048 8.8418 10.5438C8.73969 11.0395 8.81287 11.5553 9.04885 12.0031C9.28482 12.4509 9.66894 12.8028 10.1356 12.9988C10.6023 13.1948 11.1225 13.2227 11.6074 13.0777C12.0924 12.9327 12.5119 12.6238 12.7944 12.2039C13.0769 11.7839 13.2048 11.2788 13.1563 10.775C13.1077 10.2712 12.8858 9.79988 12.5283 9.44155C12.1212 9.03808 11.5736 8.80808 11.0005 8.79989ZM11.0005 11.8554C10.8434 11.8554 10.6898 11.8088 10.5591 11.7216C10.4285 11.6343 10.3267 11.5102 10.2665 11.365C10.2064 11.2198 10.1907 11.0601 10.2213 10.906C10.252 10.7519 10.3276 10.6103 10.4387 10.4992C10.5499 10.3881 10.6914 10.3125 10.8455 10.2818C10.9996 10.2512 11.1594 10.2669 11.3045 10.327C11.4497 10.3872 11.5738 10.489 11.6611 10.6196C11.7484 10.7503 11.7949 10.9039 11.7949 11.061C11.7831 11.2623 11.6938 11.4511 11.5456 11.5879C11.3975 11.7246 11.2021 11.7986 11.0005 11.7943V11.8554Z" fill="white"/>
<path id="Vector_2" d="M15.2769 7.73067C15.1777 7.49905 15.038 7.28695 14.8644 7.10428C14.6827 6.92221 14.4638 6.7815 14.2227 6.69178C13.8991 6.57308 13.5589 6.50605 13.2144 6.49316C12.6186 6.49316 12.4658 6.49316 10.9838 6.49316C9.5019 6.49316 9.33385 6.49316 8.75329 6.49316C8.40369 6.50444 8.05814 6.57149 7.72968 6.69178C7.49324 6.78533 7.27806 6.92553 7.09695 7.10401C6.91584 7.2825 6.77251 7.49562 6.67551 7.73067C6.56167 8.06029 6.49983 8.40563 6.49219 8.75428C6.49219 9.35011 6.49219 9.50289 6.49219 10.9848C6.49219 12.4668 6.49219 12.6348 6.49219 13.2154C6.49856 13.5642 6.56044 13.9097 6.67551 14.239C6.77654 14.4733 6.92178 14.686 7.10329 14.8654C7.27933 15.0471 7.49318 15.1879 7.72968 15.2779C8.05814 15.3982 8.40369 15.4652 8.75329 15.4765C9.33385 15.4765 9.48662 15.4765 10.9838 15.4765C12.4811 15.4765 12.6338 15.4765 13.2144 15.4765C13.5589 15.4636 13.8991 15.3966 14.2227 15.2779C14.4638 15.1882 14.6827 15.0475 14.8644 14.8654C15.0413 14.6854 15.1815 14.4726 15.2769 14.239C15.3908 13.9094 15.4526 13.564 15.4602 13.2154C15.4602 12.6196 15.4602 12.4668 15.4602 10.9848C15.4602 9.50289 15.4602 9.33483 15.4602 8.75428C15.4526 8.40563 15.3908 8.06029 15.2769 7.73067ZM13.3977 13.3987C12.7587 14.0305 11.8977 14.387 10.9991 14.3918C10.0996 14.3918 9.23692 14.0344 8.60086 13.3984C7.96479 12.7623 7.60746 11.8996 7.60746 11.0001C7.60746 10.1006 7.96479 9.2379 8.60086 8.60184C9.23692 7.96578 10.0996 7.60845 10.9991 7.60845C11.67 7.60831 12.3259 7.80715 12.8838 8.17982C13.4417 8.5525 13.8765 9.08225 14.1333 9.70208C14.39 10.3219 14.4572 11.004 14.3263 11.662C14.1953 12.32 13.8722 12.9244 13.3977 13.3987Z" fill="white"/>
<path id="Instagram_2" d="M11 0C8.82441 0 6.69767 0.645142 4.88873 1.85384C3.07979 3.06253 1.66989 4.78049 0.83733 6.79048C0.00476611 8.80046 -0.213071 11.0122 0.211367 13.146C0.635804 15.2798 1.68345 17.2398 3.22183 18.7782C4.7602 20.3165 6.72022 21.3642 8.85401 21.7886C10.9878 22.2131 13.1995 21.9952 15.2095 21.1627C17.2195 20.3301 18.9375 18.9202 20.1462 17.1113C21.3549 15.3023 22 13.1756 22 11C22 9.55546 21.7155 8.12506 21.1627 6.79048C20.6099 5.4559 19.7996 4.24327 18.7782 3.22183C17.7567 2.20038 16.5441 1.39013 15.2095 0.837327C13.8749 0.284526 12.4445 0 11 0ZM16.4542 13.2764C16.4498 13.7302 16.3671 14.1799 16.2097 14.6055C16.0579 14.9682 15.8403 15.2997 15.5681 15.5833C15.2935 15.8558 14.9659 16.069 14.6056 16.2097C14.1755 16.3723 13.7208 16.4601 13.2611 16.4694C12.6806 16.4694 12.4972 16.4694 11 16.4694C9.50278 16.4694 9.31944 16.4694 8.73889 16.4694C8.28333 16.4547 7.83372 16.3617 7.40973 16.1944C7.04221 16.0519 6.709 15.8332 6.43195 15.5528C6.15628 15.2808 5.94261 14.9525 5.80556 14.5903C5.64299 14.1602 5.55515 13.7055 5.54584 13.2458C5.54584 12.6653 5.54584 12.4819 5.54584 10.9847C5.54584 9.4875 5.54584 9.31944 5.54584 8.72361C5.55538 8.26892 5.64324 7.81928 5.80556 7.39444C5.94232 7.04891 6.14844 6.73508 6.4112 6.47232C6.67397 6.20955 6.98781 6.00342 7.33333 5.86666C7.75817 5.70435 8.20782 5.61649 8.66251 5.60694C9.24306 5.60694 9.44167 5.60694 10.9236 5.60694C12.4056 5.60694 12.6042 5.60694 13.1847 5.60694C13.6396 5.61494 14.0895 5.70285 14.5139 5.86666C14.8807 6.00348 15.214 6.21704 15.4917 6.49305C15.7665 6.77462 15.9844 7.10663 16.1333 7.47083C16.291 7.90174 16.3737 8.35646 16.3778 8.81527C16.3778 9.41111 16.3778 9.59444 16.3778 11.0917C16.3778 12.5889 16.4847 12.6806 16.4542 13.2764Z" fill="white"/>
</g>
</svg>
