<svg width="24" height="24" viewBox="0 0 24 24" fill="none" xmlns="http://www.w3.org/2000/svg">
<g id="car_gear">
<path id="Vector" opacity="0.8" d="M18.4046 7.4C18.8629 7.4 19.2525 7.23958 19.5734 6.91875C19.8942 6.59792 20.0546 6.20833 20.0546 5.75C20.0546 5.29167 19.8942 4.90208 19.5734 4.58125C19.2525 4.26042 18.8629 4.1 18.4046 4.1C17.9423 4.1 17.5517 4.26042 17.2329 4.58125C16.914 4.90208 16.7546 5.29167 16.7546 5.75C16.7546 6.20833 16.914 6.59792 17.2329 6.91875C17.5517 7.23958 17.9423 7.4 18.4046 7.4ZM17.9996 9.5C17.8916 9.5 17.8054 9.46625 17.7411 9.39875C17.6769 9.33108 17.6385 9.24458 17.6259 9.13925L17.5436 8.338C17.3223 8.292 17.1437 8.223 17.0079 8.131C16.872 8.039 16.7475 7.93033 16.6344 7.805L15.9704 8.124C15.879 8.16517 15.7835 8.1765 15.6839 8.158C15.5842 8.13933 15.5074 8.08633 15.4534 7.999L15.0486 7.376C14.9906 7.28483 14.9724 7.18833 14.9939 7.0865C15.0154 6.98483 15.0709 6.90075 15.1606 6.83425L15.7736 6.38925C15.6943 6.22175 15.6546 6.01067 15.6546 5.756C15.6546 5.50133 15.6943 5.28825 15.7736 5.11675L15.1546 4.66575C15.0649 4.59925 15.0104 4.51617 14.9909 4.4165C14.9714 4.31667 14.9886 4.21917 15.0426 4.124L15.4416 3.507C15.4954 3.41567 15.5709 3.36067 15.6679 3.342C15.7647 3.3235 15.8635 3.33283 15.9644 3.37L16.6404 3.701C16.745 3.57567 16.8748 3.466 17.0296 3.372C17.1843 3.278 17.3556 3.208 17.5436 3.162L17.6259 2.36075C17.6385 2.25542 17.6769 2.16892 17.7411 2.10125C17.8054 2.03375 17.8916 2 17.9996 2H18.8034C18.9114 2 18.9975 2.03375 19.0619 2.10125C19.1262 2.16892 19.1667 2.25542 19.1834 2.36075L19.2654 3.168C19.4495 3.21 19.6189 3.278 19.7736 3.372C19.9283 3.466 20.0599 3.57567 20.1686 3.701L20.8389 3.37C20.9397 3.32883 21.0385 3.31758 21.1354 3.33625C21.2322 3.35492 21.3076 3.40983 21.3616 3.501L21.7606 4.124C21.8146 4.21917 21.8319 4.31667 21.8124 4.4165C21.7929 4.51617 21.7383 4.59925 21.6486 4.66575L21.0296 5.11675C21.1049 5.28825 21.1426 5.50033 21.1426 5.753C21.1426 6.00567 21.1049 6.21575 21.0296 6.38325L21.6426 6.83425C21.7323 6.90075 21.7879 6.98483 21.8094 7.0865C21.8309 7.18833 21.8126 7.28483 21.7546 7.376L21.3496 7.999C21.2956 8.09017 21.2193 8.14508 21.1206 8.16375C21.0221 8.18242 20.9262 8.17117 20.8329 8.13L20.1686 7.805C20.0556 7.93033 19.9312 8.039 19.7954 8.131C19.6595 8.223 19.4829 8.292 19.2654 8.338L19.1834 9.13925C19.1667 9.24458 19.1262 9.33108 19.0619 9.39875C18.9975 9.46625 18.9114 9.5 18.8034 9.5H17.9996ZM3.74911 21.1495C3.49678 21.1495 3.28378 21.0627 3.11011 20.889C2.93644 20.7153 2.84961 20.5023 2.84961 20.25V12.256C2.84961 12.1663 2.85478 12.0776 2.86511 11.9897C2.87544 11.9021 2.89928 11.8106 2.93661 11.7153L4.90736 5.9595C5.01819 5.62267 5.21569 5.35267 5.49986 5.1495C5.78419 4.94617 6.10061 4.8445 6.44911 4.8445H11.2269C11.4712 4.8445 11.6742 4.92875 11.8359 5.09725C11.9975 5.26575 12.0764 5.47283 12.0724 5.7185C12.0685 5.96017 11.9857 6.15983 11.8239 6.3175C11.6622 6.475 11.4632 6.55375 11.2269 6.55375H6.49086L5.13986 10.65H15.6046C15.8131 10.65 15.9902 10.7223 16.1359 10.867C16.2817 11.0115 16.3546 11.1907 16.3546 11.4045C16.3546 11.6182 16.2817 11.7958 16.1359 11.9375C15.9902 12.0792 15.8131 12.15 15.6046 12.15H4.55286V17.3462H19.4454V12.3825C19.4454 12.1422 19.5276 11.9402 19.6921 11.7765C19.8566 11.6128 20.0597 11.531 20.3014 11.531C20.543 11.531 20.7456 11.6128 20.9091 11.7765C21.0728 11.9402 21.1546 12.1422 21.1546 12.3825V20.25C21.1546 20.5023 21.0668 20.7153 20.8911 20.889C20.7154 21.0627 20.5014 21.1495 20.2491 21.1495H19.9116C19.6521 21.1495 19.4332 21.0647 19.2549 20.895C19.0764 20.7253 18.9871 20.5143 18.9871 20.262V19.0495H5.01111V20.262C5.01111 20.5143 4.92428 20.7253 4.75061 20.895C4.57694 21.0647 4.36394 21.1495 4.11161 21.1495H3.74911ZM7.12911 16.12C7.51794 16.12 7.84844 15.9887 8.12061 15.7262C8.39294 15.4637 8.52911 15.145 8.52911 14.77C8.52911 14.3812 8.39353 14.0507 8.12236 13.7785C7.85136 13.5062 7.52219 13.37 7.13486 13.37C6.74769 13.37 6.42494 13.5056 6.16661 13.7768C5.90828 14.0478 5.77911 14.3769 5.77911 14.7643C5.77911 15.1514 5.91036 15.4742 6.17286 15.7325C6.43536 15.9908 6.75411 16.12 7.12911 16.12ZM16.8501 16.12C17.2391 16.12 17.5697 15.9887 17.8419 15.7262C18.114 15.4637 18.2501 15.145 18.2501 14.77C18.2501 14.3812 18.1146 14.0507 17.8436 13.7785C17.5724 13.5062 17.2433 13.37 16.8561 13.37C16.4688 13.37 16.1459 13.5056 15.8876 13.7768C15.6293 14.0478 15.5001 14.3769 15.5001 14.7643C15.5001 15.1514 15.6314 15.4742 15.8939 15.7325C16.1564 15.9908 16.4751 16.12 16.8501 16.12Z" fill="#020202"/>
</g>
</svg>
