<svg width="25" height="25" viewBox="0 0 25 25" fill="none" xmlns="http://www.w3.org/2000/svg">
<path id="Google" fill-rule="evenodd" clip-rule="evenodd" d="M12.5 0C5.59583 0 0 5.59687 0 12.5C0 19.4031 5.59583 25 12.5 25C19.4031 25 25 19.4031 25 12.5C25 5.59687 19.4031 0 12.5 0ZM12.6458 19.8104C8.61667 19.8104 5.35417 16.5396 5.35417 12.5C5.35417 8.46042 8.61667 5.18958 12.6458 5.18958C14.6146 5.18958 16.2604 5.91562 17.5229 7.09479L15.4667 9.15521V9.15104C14.701 8.41979 13.7302 8.04479 12.6458 8.04479C10.2396 8.04479 8.28438 10.0823 8.28438 12.4958C8.28438 14.9073 10.2396 16.951 12.6458 16.951C14.8292 16.951 16.3146 15.699 16.6208 13.9802H12.6458V11.1292H19.5052C19.5969 11.6187 19.6458 12.1292 19.6458 12.6646C19.6458 16.8417 16.8573 19.8104 12.6458 19.8104Z" fill="white"/>
</svg>
