<svg width="24" height="24" viewBox="0 0 24 24" fill="none" xmlns="http://www.w3.org/2000/svg">
<g id="package_2">
<path id="Vector" d="M11.1714 20.0422V12.4688L4.55286 8.64425V16.2175L11.1714 20.0422ZM12.8329 20.0422L19.4454 16.2175V8.61925L12.8329 12.4688V20.0422ZM11.1474 21.9882L3.70136 17.6992C3.43203 17.5459 3.22278 17.3363 3.07361 17.0703C2.92428 16.8042 2.84961 16.5208 2.84961 16.2197V7.77975C2.84961 7.47875 2.92428 7.19525 3.07361 6.92925C3.22278 6.66325 3.43203 6.45358 3.70136 6.30025L11.1474 2.00525C11.4127 1.85592 11.6966 1.78125 11.9991 1.78125C12.3016 1.78125 12.5855 1.85592 12.8509 2.00525L20.2969 6.30025C20.5662 6.45358 20.7764 6.66325 20.9276 6.92925C21.0789 7.19525 21.1546 7.47875 21.1546 7.77975V16.2197C21.1546 16.5208 21.0789 16.8042 20.9276 17.0703C20.7764 17.3363 20.5662 17.5459 20.2969 17.6992L12.8509 21.9882C12.5855 22.1416 12.3016 22.2183 11.9991 22.2183C11.6966 22.2183 11.4127 22.1416 11.1474 21.9882ZM16.0871 8.666L18.5176 7.25675L11.9991 3.4845L9.57461 4.88775L16.0871 8.666ZM11.9991 11.054L14.4796 9.60075L7.93611 5.8345L5.46161 7.25675L11.9991 11.054Z" fill="#020202"/>
</g>
</svg>
