<svg width="24" height="24" viewBox="0 0 24 24" fill="none" xmlns="http://www.w3.org/2000/svg">
<g id="3p" opacity="0.8">
<rect width="24" height="24" fill="#FAB549"/>
<path id="Vector" d="M7.93336 14.06H16.0649V13.5492C16.0649 12.8452 15.7047 12.2966 14.9844 11.9032C14.2642 11.5099 13.2691 11.3132 11.9991 11.3132C10.7291 11.3132 9.73403 11.5099 9.01386 11.9032C8.29353 12.2966 7.93336 12.8452 7.93336 13.5492V14.06ZM11.9984 9.66323C12.5195 9.66323 12.9643 9.48031 13.3326 9.11448C13.7008 8.74881 13.8849 8.30539 13.8849 7.78423C13.8849 7.26289 13.701 6.81814 13.3334 6.44998C12.9655 6.08164 12.521 5.89748 11.9999 5.89748C11.4787 5.89748 11.0339 6.08139 10.6656 6.44923C10.2974 6.81689 10.1134 7.26139 10.1134 7.78273C10.1134 8.30389 10.2972 8.74764 10.6649 9.11398C11.0327 9.48014 11.4772 9.66323 11.9984 9.66323ZM5.84961 18.1497L3.30411 20.6952C3.03478 20.9646 2.72503 21.0266 2.37486 20.8815C2.02469 20.7365 1.84961 20.4775 1.84961 20.1045V3.55398C1.84961 3.09231 2.01853 2.69206 2.35636 2.35323C2.69403 2.01423 3.09286 1.84473 3.55286 1.84473H20.4454C20.907 1.84473 21.3073 2.01423 21.6461 2.35323C21.9851 2.69206 22.1546 3.09231 22.1546 3.55398V16.4465C22.1546 16.9065 21.9851 17.3053 21.6461 17.643C21.3073 17.9808 20.907 18.1497 20.4454 18.1497H5.84961ZM5.19961 16.4465H20.4454V3.55398H3.55286V18.2432L5.19961 16.4465Z" fill="#020202"/>
</g>
</svg>
