<svg width="1853" height="28" viewBox="0 0 1853 28" fill="none" xmlns="http://www.w3.org/2000/svg">
<g id="Frame 18">
<g id="Vector" filter="url(#filter0_d_205_264)">
<path d="M5.37286 11.6939H23.7194C24.0873 11.6939 24.3926 11.8181 24.6354 12.0664C24.8785 12.3147 25 12.6267 25 13.0023C25 13.3779 24.8785 13.6898 24.6354 13.9381C24.3926 14.1865 24.0873 14.3106 23.7194 14.3106H5.37286L13.6446 22.7615C13.9002 23.0226 14.0296 23.3302 14.0329 23.6843C14.0364 24.0386 13.9102 24.347 13.6544 24.6094C13.3983 24.8728 13.0965 25.003 12.7489 24.9999C12.4014 24.9969 12.0988 24.8649 11.8412 24.604L1.39203 13.9282C1.25521 13.7868 1.15574 13.6399 1.09359 13.4873C1.0312 13.3345 1 13.1724 1 13.0011C1 12.8299 1.0312 12.6682 1.09359 12.5161C1.15574 12.3638 1.25521 12.2172 1.39203 12.0764L11.8502 1.40054C12.1146 1.13351 12.4174 1 12.7587 1C13.0997 1 13.398 1.13428 13.6536 1.40284C13.909 1.66423 14.0366 1.96953 14.0366 2.31874C14.0366 2.66769 13.909 2.97273 13.6536 3.23386L5.37286 11.6939Z" fill="#020202"/>
<path d="M5.37286 11.6939H23.7194C24.0873 11.6939 24.3926 11.8181 24.6354 12.0664C24.8785 12.3147 25 12.6267 25 13.0023C25 13.3779 24.8785 13.6898 24.6354 13.9381C24.3926 14.1865 24.0873 14.3106 23.7194 14.3106H5.37286L13.6446 22.7615C13.9002 23.0226 14.0296 23.3302 14.0329 23.6843C14.0364 24.0386 13.9102 24.347 13.6544 24.6094C13.3983 24.8728 13.0965 25.003 12.7489 24.9999C12.4014 24.9969 12.0988 24.8649 11.8412 24.604L1.39203 13.9282C1.25521 13.7868 1.15574 13.6399 1.09359 13.4873C1.0312 13.3345 1 13.1724 1 13.0011C1 12.8299 1.0312 12.6682 1.09359 12.5161C1.15574 12.3638 1.25521 12.2172 1.39203 12.0764L11.8502 1.40054C12.1146 1.13351 12.4174 1 12.7587 1C13.0997 1 13.398 1.13428 13.6536 1.40284C13.909 1.66423 14.0366 1.96953 14.0366 2.31874C14.0366 2.66769 13.909 2.97273 13.6536 3.23386L5.37286 11.6939Z" stroke="#020202" stroke-width="2"/>
</g>
<g id="Vector_2" filter="url(#filter1_d_205_264)">
<path d="M1845.63 14.3061H1827.28C1826.91 14.3061 1826.61 14.1819 1826.36 13.9336C1826.12 13.6853 1826 13.3733 1826 12.9977C1826 12.6221 1826.12 12.3102 1826.36 12.0619C1826.61 11.8135 1826.91 11.6894 1827.28 11.6894H1845.63L1837.36 3.23853C1837.1 2.97739 1836.97 2.66979 1836.97 2.31572C1836.96 1.96139 1837.09 1.65302 1837.35 1.3906C1837.6 1.12716 1837.9 0.996981 1838.25 1.00005C1838.6 1.00313 1838.9 1.1351 1839.16 1.39598L1849.61 12.0718C1849.74 12.2132 1849.84 12.3601 1849.91 12.5127C1849.97 12.6655 1850 12.8276 1850 12.9989C1850 13.1701 1849.97 13.3318 1849.91 13.4839C1849.84 13.6362 1849.74 13.7828 1849.61 13.9236L1839.15 24.5995C1838.89 24.8665 1838.58 25 1838.24 25C1837.9 25 1837.6 24.8657 1837.35 24.5972C1837.09 24.3358 1836.96 24.0305 1836.96 23.6813C1836.96 23.3323 1837.09 23.0273 1837.35 22.7661L1845.63 14.3061Z" fill="#020202"/>
<path d="M1845.63 14.3061H1827.28C1826.91 14.3061 1826.61 14.1819 1826.36 13.9336C1826.12 13.6853 1826 13.3733 1826 12.9977C1826 12.6221 1826.12 12.3102 1826.36 12.0619C1826.61 11.8135 1826.91 11.6894 1827.28 11.6894H1845.63L1837.36 3.23853C1837.1 2.97739 1836.97 2.66979 1836.97 2.31572C1836.96 1.96139 1837.09 1.65302 1837.35 1.3906C1837.6 1.12716 1837.9 0.996981 1838.25 1.00005C1838.6 1.00313 1838.9 1.1351 1839.16 1.39598L1849.61 12.0718C1849.74 12.2132 1849.84 12.3601 1849.91 12.5127C1849.97 12.6655 1850 12.8276 1850 12.9989C1850 13.1701 1849.97 13.3318 1849.91 13.4839C1849.84 13.6362 1849.74 13.7828 1849.61 13.9236L1839.15 24.5995C1838.89 24.8665 1838.58 25 1838.24 25C1837.9 25 1837.6 24.8657 1837.35 24.5972C1837.09 24.3358 1836.96 24.0305 1836.96 23.6813C1836.96 23.3323 1837.09 23.0273 1837.35 22.7661L1845.63 14.3061Z" stroke="#020202" stroke-width="2"/>
</g>
</g>
<defs>
<filter id="filter0_d_205_264" x="0" y="0" width="28" height="28" filterUnits="userSpaceOnUse" color-interpolation-filters="sRGB">
<feFlood flood-opacity="0" result="BackgroundImageFix"/>
<feColorMatrix in="SourceAlpha" type="matrix" values="0 0 0 0 0 0 0 0 0 0 0 0 0 0 0 0 0 0 127 0" result="hardAlpha"/>
<feOffset dx="1" dy="1"/>
<feGaussianBlur stdDeviation="0.5"/>
<feComposite in2="hardAlpha" operator="out"/>
<feColorMatrix type="matrix" values="0 0 0 0 0 0 0 0 0 0 0 0 0 0 0 0 0 0 0.25 0"/>
<feBlend mode="normal" in2="BackgroundImageFix" result="effect1_dropShadow_205_264"/>
<feBlend mode="normal" in="SourceGraphic" in2="effect1_dropShadow_205_264" result="shape"/>
</filter>
<filter id="filter1_d_205_264" x="1825" y="0" width="28" height="28" filterUnits="userSpaceOnUse" color-interpolation-filters="sRGB">
<feFlood flood-opacity="0" result="BackgroundImageFix"/>
<feColorMatrix in="SourceAlpha" type="matrix" values="0 0 0 0 0 0 0 0 0 0 0 0 0 0 0 0 0 0 127 0" result="hardAlpha"/>
<feOffset dx="1" dy="1"/>
<feGaussianBlur stdDeviation="0.5"/>
<feComposite in2="hardAlpha" operator="out"/>
<feColorMatrix type="matrix" values="0 0 0 0 0 0 0 0 0 0 0 0 0 0 0 0 0 0 0.25 0"/>
<feBlend mode="normal" in2="BackgroundImageFix" result="effect1_dropShadow_205_264"/>
<feBlend mode="normal" in="SourceGraphic" in2="effect1_dropShadow_205_264" result="shape"/>
</filter>
</defs>
</svg>
