<svg width="25" height="25" viewBox="0 0 25 25" fill="none" xmlns="http://www.w3.org/2000/svg">
<g id="Intagram">
<path id="Vector" d="M12.5002 10.0001C11.9251 9.99511 11.366 10.19 10.9186 10.5514C10.4712 10.9129 10.1632 11.4184 10.0471 11.9818C9.93111 12.5451 10.0143 13.1313 10.2824 13.6401C10.5506 14.1489 10.9871 14.5489 11.5174 14.7716C12.0477 14.9943 12.6388 15.026 13.1899 14.8612C13.741 14.6965 14.2177 14.3455 14.5387 13.8682C14.8597 13.391 15.0051 12.8171 14.9499 12.2446C14.8948 11.6721 14.6425 11.1364 14.2363 10.7293C13.7737 10.2708 13.1515 10.0094 12.5002 10.0001ZM12.5002 13.4723C12.3217 13.4723 12.1471 13.4194 11.9987 13.3202C11.8502 13.221 11.7345 13.08 11.6662 12.915C11.5978 12.75 11.58 12.5685 11.6148 12.3934C11.6496 12.2183 11.7356 12.0574 11.8619 11.9312C11.9881 11.8049 12.149 11.7189 12.3241 11.6841C12.4992 11.6493 12.6807 11.6672 12.8457 11.7355C13.0107 11.8038 13.1517 11.9195 13.2509 12.068C13.3501 12.2164 13.403 12.391 13.403 12.5695C13.3896 12.7983 13.288 13.0129 13.1197 13.1683C12.9513 13.3237 12.7293 13.4078 12.5002 13.4029V13.4723Z" fill="white"/>
<path id="Vector_2" d="M17.3615 8.78516C17.2488 8.52196 17.09 8.28093 16.8928 8.07335C16.6863 7.86646 16.4376 7.70657 16.1636 7.6046C15.7959 7.46972 15.4092 7.39355 15.0178 7.37891C14.3407 7.37891 14.1671 7.37891 12.4831 7.37891C10.799 7.37891 10.6081 7.37891 9.94834 7.37891C9.55107 7.39172 9.15839 7.46792 8.78515 7.6046C8.51647 7.71092 8.27194 7.87023 8.06613 8.07305C7.86033 8.27588 7.69746 8.51806 7.58723 8.78516C7.45786 9.15973 7.38759 9.55216 7.37891 9.94836C7.37891 10.6254 7.37891 10.799 7.37891 12.4831C7.37891 14.1671 7.37891 14.3581 7.37891 15.0178C7.38615 15.4141 7.45646 15.8068 7.58723 16.181C7.70203 16.4473 7.86708 16.689 8.07334 16.8928C8.27339 17.0993 8.5164 17.2593 8.78515 17.3615C9.15839 17.4982 9.55107 17.5744 9.94834 17.5872C10.6081 17.5872 10.7817 17.5872 12.4831 17.5872C14.1845 17.5872 14.3581 17.5872 15.0178 17.5872C15.4092 17.5726 15.7959 17.4964 16.1636 17.3615C16.4376 17.2596 16.6863 17.0997 16.8928 16.8928C17.0938 16.6883 17.2531 16.4465 17.3615 16.181C17.4909 15.8064 17.5612 15.414 17.5699 15.0178C17.5699 14.3407 17.5699 14.1671 17.5699 12.4831C17.5699 10.799 17.5699 10.6081 17.5699 9.94836C17.5612 9.55216 17.4909 9.15973 17.3615 8.78516ZM15.2261 15.2261C14.5 15.9441 13.5216 16.3492 12.5004 16.3546C11.4782 16.3546 10.4979 15.9485 9.77512 15.2257C9.05232 14.5029 8.64626 13.5226 8.64626 12.5004C8.64626 11.4782 9.05232 10.4979 9.77512 9.77513C10.4979 9.05233 11.4782 8.64627 12.5004 8.64627C13.2628 8.64612 14.0081 8.87207 14.6421 9.29557C15.276 9.71906 15.7702 10.3211 16.0619 11.0254C16.3537 11.7298 16.43 12.5048 16.2813 13.2526C16.1325 14.0003 15.7653 14.6871 15.2261 15.2261Z" fill="white"/>
<path id="Vector_3" d="M12.5 0C10.0277 0 7.61099 0.733115 5.55537 2.10663C3.49976 3.48015 1.89761 5.43238 0.951511 7.71645C0.00541603 10.0005 -0.242126 12.5139 0.24019 14.9386C0.722505 17.3634 1.91301 19.5907 3.66117 21.3388C5.40932 23.087 7.63662 24.2775 10.0614 24.7598C12.4861 25.2421 14.9995 24.9946 17.2835 24.0485C19.5676 23.1024 21.5199 21.5002 22.8934 19.4446C24.2669 17.389 25 14.9723 25 12.5C25 10.8585 24.6767 9.23302 24.0485 7.71645C23.4203 6.19988 22.4996 4.8219 21.3388 3.66117C20.1781 2.50044 18.8001 1.57969 17.2835 0.951508C15.767 0.323325 14.1415 0 12.5 0ZM18.6979 15.0868C18.693 15.6025 18.599 16.1135 18.4201 16.5972C18.2476 17.0093 18.0004 17.386 17.691 17.7083C17.3789 18.0179 17.0067 18.2602 16.5972 18.4201C16.1085 18.6049 15.5918 18.7047 15.0695 18.7153C14.4097 18.7153 14.2014 18.7153 12.5 18.7153C10.7986 18.7153 10.5903 18.7153 9.93055 18.7153C9.41288 18.6985 8.90196 18.5928 8.42015 18.4028C8.00251 18.2408 7.62386 17.9923 7.30904 17.6736C6.99577 17.3645 6.75296 16.9914 6.59722 16.5799C6.41249 16.0911 6.31267 15.5744 6.30209 15.0521C6.30209 14.3924 6.30209 14.184 6.30209 12.4826C6.30209 10.7812 6.30209 10.5903 6.30209 9.91319C6.31294 9.3965 6.41278 8.88554 6.59722 8.40277C6.75263 8.01013 6.98686 7.6535 7.28546 7.3549C7.58406 7.05631 7.94069 6.82207 8.33333 6.66666C8.8161 6.48222 9.32706 6.38238 9.84376 6.37153C10.5035 6.37153 10.7292 6.37153 12.4132 6.37153C14.0972 6.37153 14.3229 6.37153 14.9826 6.37153C15.4995 6.38061 16.0108 6.48051 16.4931 6.66666C16.9099 6.82214 17.2887 7.06482 17.6042 7.37847C17.9165 7.69843 18.1641 8.07572 18.3333 8.48958C18.5125 8.97925 18.6064 9.49597 18.6111 10.0174C18.6111 10.6944 18.6111 10.9028 18.6111 12.6042C18.6111 14.3056 18.7326 14.4097 18.6979 15.0868Z" fill="white"/>
</g>
</svg>
