<svg width="22" height="22" viewBox="0 0 22 22" fill="none" xmlns="http://www.w3.org/2000/svg">
<path id="Twittere" d="M11 0C4.92479 0 0 4.92479 0 11C0 17.0752 4.92479 22 11 22C17.0752 22 22 17.0752 22 11C22 4.92479 17.0752 0 11 0ZM15.4745 9.01083C15.4791 9.10479 15.4802 9.19875 15.4802 9.29042C15.4802 12.155 13.302 15.4561 9.31677 15.4561C8.13919 15.4581 6.98611 15.1199 5.99615 14.4822C6.16458 14.5028 6.3376 14.5108 6.51292 14.5108C7.52812 14.5108 8.46198 14.1659 9.20333 13.5839C8.75155 13.575 8.31379 13.4254 7.95106 13.1559C7.58834 12.8864 7.31872 12.5105 7.17979 12.0805C7.50424 12.1422 7.83847 12.1293 8.15719 12.0427C7.66683 11.9435 7.22585 11.6778 6.90904 11.2907C6.59223 10.9035 6.41908 10.4186 6.41896 9.91833V9.89198C6.71114 10.0535 7.04573 10.1521 7.40094 10.1635C6.94123 9.85752 6.6158 9.38743 6.4912 8.84942C6.3666 8.31141 6.45225 7.74612 6.73062 7.26917C7.27484 7.93833 7.95353 8.48575 8.72273 8.87598C9.49194 9.26621 10.3345 9.49055 11.1959 9.53448C11.0864 9.06962 11.1336 8.58161 11.33 8.14631C11.5265 7.711 11.8612 7.3528 12.2823 7.12739C12.7033 6.90197 13.187 6.82197 13.6582 6.89983C14.1294 6.97769 14.5617 7.20904 14.8878 7.55792C15.3727 7.46198 15.8377 7.28412 16.2628 7.03198C16.1012 7.53401 15.7629 7.9603 15.3106 8.23167C15.7401 8.17993 16.1595 8.06446 16.555 7.88906C16.2645 8.32436 15.8986 8.70425 15.4745 9.01083Z" fill="white"/>
</svg>
